<svg width="129" height="41" viewBox="0 0 129 41" fill="none" xmlns="http://www.w3.org/2000/svg">
<rect y="0.5" width="40" height="40" rx="4" fill="url(#paint0_linear_135_223)"/>
<path d="M8 32.5L20 20.5M20 20.5L32 32.5M20 20.5L32 8.5M20 20.5L8 8.5" stroke="#E7E7E7" stroke-opacity="0.34" stroke-width="0.5"/>
<path d="M12 20.5L20 20.5M20 20.5L20 28.5M20 20.5L28 20.5M20 20.5L20 12.5" stroke="#E7E7E7" stroke-opacity="0.34" stroke-width="0.5"/>
<circle cx="19.9987" cy="20.5" r="2.66667" fill="white"/>
<g filter="url(#filter0_f_135_223)">
<circle cx="19.9987" cy="20.5" r="2.66667" fill="white"/>
</g>
<circle cx="11.9993" cy="20.5" r="1.33333" fill="url(#paint1_linear_135_223)"/>
<circle cx="19.9993" cy="12.5" r="1.33333" fill="url(#paint2_linear_135_223)"/>
<circle cx="19.9993" cy="28.5" r="1.33333" fill="url(#paint3_linear_135_223)"/>
<circle cx="27.9974" cy="20.5" r="1.33333" fill="url(#paint4_linear_135_223)"/>
<circle cx="31.9993" cy="8.50002" r="1.33333" fill="url(#paint5_linear_135_223)"/>
<circle cx="7.99935" cy="32.5" r="1.33333" fill="url(#paint6_linear_135_223)"/>
<circle cx="7.99935" cy="8.50002" r="1.33333" fill="url(#paint7_linear_135_223)"/>
<circle cx="31.9993" cy="32.5" r="1.33333" fill="url(#paint8_linear_135_223)"/>
<path d="M105.104 22.4185V32.1595H101.91V15.7537H104.976V18.4239H105.179C105.556 17.5552 106.147 16.8574 106.952 16.3304C107.763 15.8035 108.785 15.54 110.017 15.54C111.135 15.54 112.114 15.775 112.954 16.245C113.794 16.7078 114.446 17.3985 114.909 18.3171C115.372 19.2356 115.603 20.3714 115.603 21.7243V32.1595H112.409V22.1088C112.409 20.9197 112.1 19.9904 111.48 19.3211C110.861 18.6446 110.01 18.3064 108.928 18.3064C108.187 18.3064 107.528 18.4666 106.952 18.787C106.382 19.1075 105.93 19.5774 105.595 20.1969C105.268 20.8093 105.104 21.5498 105.104 22.4185Z" fill="black"/>
<path d="M95.6207 32.1596V15.7537H98.8143V32.1596H95.6207ZM97.2335 13.2223C96.6781 13.2223 96.201 13.0372 95.8023 12.6669C95.4107 12.2895 95.2148 11.8409 95.2148 11.3211C95.2148 10.7942 95.4107 10.3456 95.8023 9.9753C96.201 9.59791 96.6781 9.40921 97.2335 9.40921C97.7889 9.40921 98.2625 9.59791 98.6541 9.9753C99.0528 10.3456 99.2522 10.7942 99.2522 11.3211C99.2522 11.8409 99.0528 12.2895 98.6541 12.6669C98.2625 13.0372 97.7889 13.2223 97.2335 13.2223Z" fill="black"/>
<path d="M84.475 32.5227C83.4354 32.5227 82.4955 32.3304 81.6553 31.9459C80.815 31.5543 80.1493 30.9882 79.6579 30.2477C79.1737 29.5071 78.9316 28.5992 78.9316 27.524C78.9316 26.5983 79.1097 25.8364 79.4657 25.2383C79.8217 24.6402 80.3024 24.1667 80.9076 23.8177C81.5129 23.4688 82.1893 23.2054 82.937 23.0274C83.6846 22.8493 84.4466 22.7141 85.2227 22.6215C86.2053 22.5076 87.0029 22.415 87.6152 22.3438C88.2276 22.2655 88.6726 22.1408 88.9503 21.97C89.228 21.7991 89.3669 21.5214 89.3669 21.1368V21.0621C89.3669 20.1293 89.1034 19.4065 88.5765 18.8938C88.0567 18.3812 87.2806 18.1248 86.2481 18.1248C85.1729 18.1248 84.3255 18.3634 83.706 18.8404C83.0936 19.3104 82.67 19.8338 82.435 20.4105L79.4336 19.727C79.7897 18.7301 80.3095 17.9254 80.9931 17.3131C81.6838 16.6936 82.4777 16.245 83.3749 15.9673C84.2721 15.6825 85.2156 15.54 86.2053 15.54C86.8604 15.54 87.5547 15.6184 88.2881 15.775C89.0287 15.9246 89.7194 16.2023 90.3602 16.6081C91.0082 17.014 91.5387 17.5943 91.9517 18.3491C92.3647 19.0968 92.5712 20.0687 92.5712 21.265V32.1595H89.4523V29.9166H89.3242C89.1177 30.3295 88.8079 30.7354 88.3949 31.1342C87.9819 31.5329 87.4515 31.864 86.8035 32.1275C86.1555 32.391 85.3794 32.5227 84.475 32.5227ZM85.1693 29.9593C86.0522 29.9593 86.807 29.7848 87.4337 29.4359C88.0674 29.087 88.548 28.6313 88.8756 28.0688C89.2102 27.4991 89.3776 26.8903 89.3776 26.2423V24.1275C89.2636 24.2414 89.0429 24.3482 88.7154 24.4479C88.3949 24.5405 88.0282 24.6224 87.6152 24.6936C87.2022 24.7577 86.7999 24.8182 86.4083 24.8752C86.0166 24.925 85.6891 24.9677 85.4256 25.0033C84.8061 25.0817 84.2401 25.2134 83.7274 25.3985C83.2218 25.5837 82.8159 25.8507 82.5097 26.1996C82.2107 26.5414 82.0611 26.9971 82.0611 27.5668C82.0611 28.3571 82.3531 28.9553 82.937 29.3611C83.5209 29.7599 84.265 29.9593 85.1693 29.9593Z" fill="black"/>
<path d="M69.5078 32.1595V15.7537H72.5946V18.3598H72.7655C73.0646 17.4768 73.5915 16.7826 74.3463 16.277C75.1082 15.7643 75.9698 15.508 76.931 15.508C77.1304 15.508 77.3654 15.5151 77.636 15.5294C77.9137 15.5436 78.1309 15.5614 78.2875 15.5828V18.6375C78.1594 18.6019 77.9315 18.5627 77.6039 18.52C77.2764 18.4702 76.9489 18.4452 76.6213 18.4452C75.8665 18.4452 75.1936 18.6055 74.6026 18.9259C74.0187 19.2392 73.5559 19.6771 73.2141 20.2396C72.8723 20.795 72.7014 21.4288 72.7014 22.1408V32.1595H69.5078Z" fill="black"/>
<path d="M52 13.1262V10.285H68.9293V13.1262H62.1041V32.1596H58.8144V13.1262H52Z" fill="black"/>
<path d="M129 5.5V14.6144H127.625V5.5H129Z" fill="#D72B00"/>
<path d="M120.12 14.6144H118.66L121.94 5.5H123.529L126.809 14.6144H125.349L122.772 7.15554H122.701L120.12 14.6144ZM120.365 11.0452H125.1V12.2023H120.365V11.0452Z" fill="#D72B00"/>
<defs>
<filter id="filter0_f_135_223" x="15.432" y="15.9333" width="9.13398" height="9.13334" filterUnits="userSpaceOnUse" color-interpolation-filters="sRGB">
<feFlood flood-opacity="0" result="BackgroundImageFix"/>
<feBlend mode="normal" in="SourceGraphic" in2="BackgroundImageFix" result="shape"/>
<feGaussianBlur stdDeviation="0.95" result="effect1_foregroundBlur_135_223"/>
</filter>
<linearGradient id="paint0_linear_135_223" x1="20" y1="0.5" x2="20" y2="40.5" gradientUnits="userSpaceOnUse">
<stop stop-color="#D72B00"/>
<stop offset="1" stop-color="#FF5900"/>
</linearGradient>
<linearGradient id="paint1_linear_135_223" x1="11.9993" y1="19.1667" x2="11.9993" y2="21.8333" gradientUnits="userSpaceOnUse">
<stop stop-color="white"/>
<stop offset="1" stop-color="#FF762E"/>
</linearGradient>
<linearGradient id="paint2_linear_135_223" x1="19.9993" y1="11.1667" x2="19.9993" y2="13.8333" gradientUnits="userSpaceOnUse">
<stop stop-color="white"/>
<stop offset="1" stop-color="#FF762E"/>
</linearGradient>
<linearGradient id="paint3_linear_135_223" x1="19.9993" y1="27.1667" x2="19.9993" y2="29.8333" gradientUnits="userSpaceOnUse">
<stop stop-color="white"/>
<stop offset="1" stop-color="#FF762E"/>
</linearGradient>
<linearGradient id="paint4_linear_135_223" x1="27.9974" y1="19.1667" x2="27.9974" y2="21.8333" gradientUnits="userSpaceOnUse">
<stop stop-color="white"/>
<stop offset="1" stop-color="#FF762E"/>
</linearGradient>
<linearGradient id="paint5_linear_135_223" x1="31.9993" y1="7.16669" x2="31.9993" y2="9.83335" gradientUnits="userSpaceOnUse">
<stop stop-color="white"/>
<stop offset="1" stop-color="#FF762E"/>
</linearGradient>
<linearGradient id="paint6_linear_135_223" x1="7.99935" y1="31.1667" x2="7.99935" y2="33.8334" gradientUnits="userSpaceOnUse">
<stop stop-color="white"/>
<stop offset="1" stop-color="#FF762E"/>
</linearGradient>
<linearGradient id="paint7_linear_135_223" x1="7.99935" y1="7.16669" x2="7.99935" y2="9.83335" gradientUnits="userSpaceOnUse">
<stop stop-color="white"/>
<stop offset="1" stop-color="#FF762E"/>
</linearGradient>
<linearGradient id="paint8_linear_135_223" x1="31.9993" y1="31.1667" x2="31.9993" y2="33.8334" gradientUnits="userSpaceOnUse">
<stop stop-color="white"/>
<stop offset="1" stop-color="#FF762E"/>
</linearGradient>
</defs>
</svg>
